<svg xmlns="http://www.w3.org/2000/svg" width="2500" height="2500" viewBox="0 0 256 256" preserveAspectRatio="xMinYMin meet" xmlns:v="https://vecta.io/nano"><path d="M255.807 87.087l-.193-.924-.172-.535a11.007 11.007 0 0 0-.283-.8l-.245-.534a9.74 9.74 0 0 0-.376-.73c-.096-.176-.207-.342-.313-.51a11.038 11.038 0 0 0-.842-1.142 11.166 11.166 0 0 0-.544-.596l-.442-.431a9.07 9.07 0 0 0-.624-.52l-.5-.377-.182-.138-116.992-78a10.989 10.989 0 0 0-12.201 0l-117 77.998c-.065.041-.116.093-.182.138l-.5.376a15.52 15.52 0 0 0-.624.517 8.604 8.604 0 0 0-.438.43l-.548.597-.376.483-.465.669-.314.51a9.593 9.593 0 0 0-.372.724l-.245.534-.286.8-.169.517a11.12 11.12 0 0 0-.193.924l-.09.476C.034 88.018 0 88.494 0 88.98v78.016a9.96 9.96 0 0 0 .103 1.437c.025.173.07.31.104.476.055.31.103.62.207.931l.172.534.276.804.241.517.38.734.31.503c.148.242.31.449.482.655.121.173.242.31.38.476.175.207.344.414.551.597.141.137.276.31.448.413l.62.524c.166.138.346.242.483.376.066.034.104.103.173.134l116.968 78.04a10.815 10.815 0 0 0 6.102 1.851 11.06 11.06 0 0 0 6.102-1.85l117-78c.065-.04.12-.089.182-.134l.5-.375.624-.524.441-.428a9.876 9.876 0 0 0 .92-1.072l.466-.669.314-.503.375-.734.245-.531.283-.804.172-.534c.08-.303.135-.614.193-.924l.086-.476c.063-.475.097-.951.097-1.437V89a11.64 11.64 0 0 0-.097-1.438c-.027-.169-.079-.306-.113-.475h.017zm-127.81 66.935l-38.905-26.021 38.905-26.025 38.907 26.025-38.907 26.021zm-10.998-71.155l-47.692 31.9L30.81 89.013 117 31.555v51.312zm-67.477 45.13l-27.517 18.406v-36.811l27.517 18.405zm19.785 13.245L117 173.138v51.312l-86.19-57.465 38.498-25.75v.007zm69.69 31.89l47.692-31.896 38.501 25.749-86.193 57.458v-51.312zm67.477-45.128l27.521-18.409v36.815l-27.52-18.413v.007zm-19.785-13.238L138.997 82.87V31.555l86.193 57.459-38.5 25.752z" fill="#ccc"/></svg>