<svg xmlns="http://www.w3.org/2000/svg" width="800" height="800" viewBox="0 0 24 24" fill="none" xmlns:v="https://vecta.io/nano"><path d="M12 2C6.48 2 2 6.48 2 12s4.48 10 10 10 10-4.48 10-10S17.52 2 12 2zM8.53 13.47c.29.29.29.77 0 1.06a.74.74 0 0 1-.53.22.74.74 0 0 1-.53-.22l-2-2c-.29-.29-.29-.77 0-1.06l2-2c.29-.29.77-.29 1.06 0s.29.77 0 1.06L7.06 12l1.47 1.47zm5.16-3.51l-2 4.67c-.12.28-.4.45-.69.45-.1 0-.2-.02-.29-.06-.38-.16-.56-.6-.39-.99l2-4.67c.16-.38.6-.56.98-.39a.76.76 0 0 1 .39.99zm4.84 2.57l-2 2a.74.74 0 0 1-.53.22.74.74 0 0 1-.53-.22c-.29-.29-.29-.77 0-1.06L16.94 12l-1.47-1.47c-.29-.29-.29-.77 0-1.06s.77-.29 1.06 0l2 2c.29.29.29.77 0 1.06z" fill="#000"/></svg>