<svg xmlns="http://www.w3.org/2000/svg" width="18" height="18" viewBox="0 0 22 22" fill="none" xmlns:v="https://vecta.io/nano"><circle cx="11" cy="11" r="10.5" stroke="#fff"/><path d="M15.811 4.696l.13-.13c.098-.098.215-.176.343-.229s.266-.08.404-.08.276.027.404.081.245.131.343.229a1.06 1.06 0 0 1 .309.747c0 .139-.027.276-.081.404s-.131.245-.229.343l-.13.13c.223.25.342.576.332.911a1.31 1.31 0 0 1-.384.891l-9.005 9.006c-.056.056-.127.096-.204.115l-3.5.875c-.073.018-.15.017-.223-.003s-.139-.059-.192-.112-.092-.12-.112-.192-.021-.149-.003-.223l.875-3.5c.019-.077.059-.147.115-.203l8.437-8.437c-.084-.059-.187-.087-.29-.078a.44.44 0 0 0-.272.127l-2.88 2.881a.44.44 0 0 1-.31.128.44.44 0 0 1-.31-.128.44.44 0 0 1-.128-.31.44.44 0 0 1 .128-.31l2.882-2.88c.237-.237.556-.374.891-.384s.661.11.911.333a1.31 1.31 0 0 1 1.748-.001z" fill="#fff"/></svg>