<svg width="18" height="18" viewBox="0 0 22 22" fill="none" xmlns="http://www.w3.org/2000/svg">
<circle cx="11" cy="11" r="10.5" stroke="white"/>
<path d="M3.05 6.555C3.15082 6.11324 3.39866 5.71881 3.75292 5.43631C4.10719 5.1538 4.54688 4.99997 5 5H17C17.4531 4.99997 17.8928 5.1538 18.2471 5.43631C18.6013 5.71881 18.8492 6.11324 18.95 6.555L11 11.414L3.05 6.555ZM3 7.697V14.801L8.803 11.243L3 7.697ZM9.761 11.83L3.191 15.857C3.35333 16.1993 3.60953 16.4884 3.92978 16.6908C4.25004 16.8931 4.62117 17.0004 5 17H17C17.3788 17.0001 17.7498 16.8926 18.0698 16.6901C18.3899 16.4876 18.6459 16.1983 18.808 15.856L12.238 11.829L11 12.586L9.761 11.83ZM13.197 11.244L19 14.801V7.697L13.197 11.243V11.244Z" fill="white"/>
</svg>
