<svg xmlns="http://www.w3.org/2000/svg" width="800" height="800" viewBox="0 0 15 15" xmlns:v="https://vecta.io/nano"><path d="M13.1 12.5c-.6.3-1.4.1-1.8-.5l-1.1-1.4H4.8L3.7 12h0c-.5.7-1.4.8-2.1.3-.5-.4-.7-1-.6-1.5l.7-3.7h0A2.57 2.57 0 0 1 4.2 5h0H7V3.5C7 2.7 7.6 2 8.4 2h3.1a.47.47 0 0 1 .5.5.47.47 0 0 1-.5.5h-3c-.3 0-.5.2-.5.4v.1V5h2.8 0a2.57 2.57 0 0 1 2.5 2.1h0l.7 3.7h0c.1.7-.2 1.4-.9 1.7zM6 7.5A1.54 1.54 0 0 0 4.5 6 1.54 1.54 0 0 0 3 7.5 1.54 1.54 0 0 0 4.5 9 1.54 1.54 0 0 0 6 7.5zm6 0a.47.47 0 0 0-.5-.5H11v-.5a.47.47 0 0 0-.5-.5.47.47 0 0 0-.5.5V7h-.5a.47.47 0 0 0-.5.5.47.47 0 0 0 .5.5h.5v.5a.47.47 0 0 0 .5.5.47.47 0 0 0 .5-.5V8h.5a.47.47 0 0 0 .5-.5z"/></svg>