<svg width="18" height="25" viewBox="0 0 18 25" fill="none" xmlns="http://www.w3.org/2000/svg">
<path d="M5.7573 18.7167C5.7573 18.7167 4.83105 19.2545 6.41649 19.4365C8.33721 19.6552 9.31886 19.6239 11.4355 19.2239C11.4355 19.2239 11.992 19.5723 12.7692 19.874C8.02421 21.9044 2.0304 19.7564 5.7573 18.7167ZM5.1775 16.0672C5.1775 16.0672 4.13861 16.835 5.72523 16.9989C7.777 17.2102 9.39732 17.2275 12.2011 16.6884C12.2011 16.6884 12.589 17.081 13.1988 17.2956C7.46178 18.9705 1.07187 17.4277 5.1775 16.0672Z" fill="#5382A1"/>
<path d="M10.0655 11.5728C11.2346 12.9167 9.75834 14.1262 9.75834 14.1262C9.75834 14.1262 12.7269 12.5961 11.3636 10.6801C10.0902 8.8932 9.11373 8.00548 14.4001 4.94449C14.4001 4.94442 6.10225 7.01352 10.0655 11.5728Z" fill="#E76F00"/>
<path d="M16.341 20.6764C16.341 20.6764 17.0265 21.2404 15.5861 21.6765C12.8473 22.5049 4.18675 22.755 1.78089 21.7096C0.916048 21.3339 2.53788 20.8126 3.04804 20.7032C3.5801 20.588 3.88414 20.6095 3.88414 20.6095C2.92235 19.933 -2.33251 21.9377 1.21494 22.5119C10.8893 24.0783 18.8505 21.8065 16.341 20.6764ZM6.20272 13.3221C6.20272 13.3221 1.79742 14.3667 4.6427 14.7461C5.84406 14.9067 8.23894 14.8703 10.4697 14.6837C12.2928 14.5302 14.1235 14.2038 14.1235 14.2038C14.1235 14.2038 13.4806 14.4786 13.0155 14.7956C8.54201 15.9704 -0.0999715 15.4238 2.38794 14.2223C4.49198 13.2069 6.20272 13.3221 6.20272 13.3221ZM14.1053 17.7322C18.6528 15.373 16.5503 13.1056 15.0826 13.4112C14.7229 13.4859 14.5625 13.5507 14.5625 13.5507C14.5625 13.5507 14.6961 13.3418 14.9511 13.2514C17.8544 12.2323 20.0873 16.2571 14.0138 17.8512C14.0138 17.8512 14.0843 17.7885 14.1053 17.7322Z" fill="#5382A1"/>
<path d="M11.3636 0.00164795C11.3636 0.00164795 13.8821 2.51689 8.9749 6.38479C5.03985 9.4874 8.07759 11.2565 8.97327 13.2777C6.67638 11.2086 4.99072 9.38721 6.12159 7.69199C7.78138 5.20355 12.3797 3.99707 11.3636 0.00164795Z" fill="#E76F00"/>
<path d="M6.64958 24.1254C11.0146 24.4043 17.7177 23.9706 17.8764 21.9085C17.8764 21.9085 17.5713 22.6902 14.2689 23.3111C10.5433 24.011 5.94813 23.9294 3.22273 23.4807C3.22286 23.4806 3.78072 23.9417 6.64958 24.1254Z" fill="#5382A1"/>
</svg>
