<svg width="22" height="22" viewBox="0 0 22 22" fill="none" xmlns="http://www.w3.org/2000/svg">
<path d="M11 21C16.5228 21 21 16.5228 21 11C21 5.47715 16.5228 1 11 1C5.47715 1 1 5.47715 1 11C1 16.5228 5.47715 21 11 21Z" fill="white" stroke="#808080" stroke-width="0.227273"/>
<path d="M11 18.5C15.1421 18.5 18.5 15.1421 18.5 11C18.5 6.85782 15.1421 3.49995 11 3.49995C6.85788 3.49995 3.50002 6.85782 3.50002 11C3.50002 15.1421 6.85788 18.5 11 18.5Z" fill="white" stroke="#808080" stroke-width="0.227273"/>
<path d="M11 16C13.7615 16 16 13.7614 16 11C16 8.23856 13.7615 5.99998 11 5.99998C8.23861 5.99998 6.00003 8.23856 6.00003 11C6.00003 13.7614 8.23861 16 11 16Z" fill="white" stroke="#808080" stroke-width="0.227273"/>
<path d="M11 13.4999C12.3807 13.4999 13.5 12.3807 13.5 10.9999C13.5 9.61923 12.3807 8.49995 11 8.49995C9.6193 8.49995 8.50002 9.61923 8.50002 10.9999C8.50002 12.3807 9.6193 13.4999 11 13.4999Z" fill="white" stroke="#808080" stroke-width="0.227273"/>
<path d="M11 1V21V1ZM18.0455 18.0455L3.95455 3.95455L18.0455 18.0455ZM18.0455 3.95455L3.95455 18.0455L18.0455 3.95455ZM21 11H1H21Z" fill="white"/>
<path d="M11 1V21M18.0455 18.0455L3.95455 3.95455M18.0455 3.95455L3.95455 18.0455M21 11H1" stroke="#808080" stroke-width="0.227273"/>
<g opacity="0.8">
<path d="M11 11H13.0454C13.0719 10.8115 13.0719 10.6203 13.0454 10.4318L11 11Z" fill="#4444CC" stroke="#808080" stroke-width="0.113636"/>
<path d="M11 11L14.8636 6.11361C14.346 5.72407 13.7709 5.41738 13.1591 5.20452L11 11Z" fill="#BBCC33" stroke="#808080" stroke-width="0.113636"/>
<path d="M11 11L9.18183 2.81815C7.88988 3.10138 6.68295 3.68538 5.6591 4.52269L11 11Z" fill="#DD9933" stroke="#808080" stroke-width="0.113636"/>
<path d="M11 11L4.40911 7.81814C3.76674 9.20133 3.56826 10.7495 3.84093 12.25L11 11Z" fill="#DDBB33" stroke="#808080" stroke-width="0.113636"/>
<path d="M11 11L7.24998 12.8181C7.31184 13.0128 7.3878 13.2027 7.47726 13.3863L11 11Z" fill="#33BBBB" stroke="#808080" stroke-width="0.113636"/>
<path d="M11 11L9.86363 16.1136C10.5388 16.2483 11.2339 16.2483 11.9091 16.1136L11 11Z" fill="#33CC99" stroke="#808080" stroke-width="0.113636"/>
<path d="M11 11L16.2273 17.5909C16.7326 17.1901 17.1901 16.7326 17.5909 16.2272L11 11Z" fill="#DD7733" stroke="#808080" stroke-width="0.113636"/>
</g>
</svg>
