<svg xmlns="http://www.w3.org/2000/svg" viewBox="0 0 391 202" xmlns:v="https://vecta.io/nano"><path d="M.738 183.793h12.8v-50.7l19.9 44.2c2.3 5.4 5.6 7.2 11.9 7.2s9.4-1.9 11.7-7.2l19.9-44.2v50.7h12.8v-50.6c0-4.9-2-7.3-6.1-8.6-9.8-3-16.3-.4-19.3 6.2l-19.4 43.6-18.9-43.6c-2.8-6.6-9.5-9.2-19.2-6.2-4.1 1.3-6.1 3.7-6.1 8.6v50.6zm99.706-41.277h12.8v27.9c-.1 1.5.5 5.1 7.5 5.2 3.6.1 27.7 0 27.9 0v-33.2h12.9c.1 0 0 45.4 0 45.6.1 11.2-13.9 13.6-20.3 13.8h-40.5v-8.6h40.6c8.3-.9 7.3-5 7.3-6.4v-3.4h-27.3c-12.7-.1-20.8-5.7-20.9-12v-28.9z" fill="#00618a"/><path d="M171.496 183.857h36.9c4.3 0 8.5-.9 11.9-2.5 5.6-2.6 8.3-6 8.3-10.5v-9.4c0-3.7-3.1-7.2-9.1-9.5-3.2-1.2-7.2-1.9-11-1.9h-15.6c-5.2 0-7.7-1.6-8.3-5-.1-.4-.1-.7-.1-1.2v-5.8c0-.3 0-.7.1-1.1.6-2.6 2-3.4 6.5-3.8.4 0 .9-.1 1.2-.1h36.7v-8.5h-36c-5.2 0-7.9.3-10.4 1.1-7.7 2.4-11 6.2-11 12.8v7.5c0 5.8 6.5 10.7 17.5 11.9 1.2.1 2.5.2 3.7.2h13.3c.5 0 1 0 1.4.1 4.1.3 5.8 1.1 7 2.6.7.7 1 1.5 1 2.3v7.5c0 .9-.6 2.1-1.9 3-1.1 1-3 1.6-5.4 1.8-.5 0-.9.1-1.4.1h-35.3v8.4zm137.16-14.9c0 8.8 6.5 13.7 19.8 14.7 1.2.1 2.5.2 3.7.2h33.5v-8.6h-33.8c-7.5 0-10.4-1.9-10.4-6.4v-44.3h-12.8v44.4zm-71.916.409v-30.5c0-7.8 5.4-12.5 16.2-14 1.1-.1 2.4-.2 3.5-.2h24.3c1.2 0 2.4.1 3.6.2 10.8 1.5 16.2 6.2 16.2 13.9v30.5c0 6.3-2.3 9.7-7.6 11.9l12.7 11.5h-15l-10.2-9.2-10.3.7h-13.7c-2.4 0-4.8-.3-7.5-1.1-8.2-2.3-12.2-6.6-12.2-13.7zm13.9-.7c0 .4.1.8.2 1.3.7 3.5 4.1 5.5 9.2 5.5h11.7l-10.7-9.7h14.9l9.3 8.4c1.7-.9 2.9-2.3 3.3-4.1.1-.4.1-.8.1-1.2v-29.3c0-.3 0-.7-.1-1.2-.7-3.3-4.1-5.2-9-5.2h-19.5c-5.7 0-9.4 2.5-9.4 6.4v29.1z" fill="#e48e00"/><g fill="#00618a"><path d="M376.89 110.357c-7.9-.2-13.9.5-19.1 2.7-1.5.6-3.8.6-4 2.5.8.8.9 2.1 1.6 3.1 1.2 2 3.3 4.7 5.2 6.1 2 1.5 4.1 3.2 6.3 4.5 3.9 2.4 8.2 3.7 11.9 6.1 2.2 1.4 4.4 3.1 6.5 4.7 1.1.8 1.8 2 3.1 2.5v-.2c-.7-.9-.9-2.2-1.6-3.1l-2.9-2.9c-2.9-3.8-6.5-7.1-10.3-9.9-3.1-2.2-9.9-5.2-11.2-8.8-.1-.1-.1-.2-.2-.2 2.2-.2 4.7-1 6.7-1.6 3.4-.9 6.4-.7 9.9-1.6 1.6-.4 3.1-.9 4.7-1.3v-.9c-1.8-1.8-3-4.2-4.9-5.8-5-4.3-10.5-8.6-16.2-12.1-3.1-2-7-3.3-10.3-4.9-1.1-.6-3.1-.9-3.8-1.8-1.7-2.2-2.7-5-4-7.6-2.8-5.4-5.6-11.4-8.1-17.1-1.7-3.9-2.8-7.7-4.9-11.2-10.4-17-21.4-27.1-38.4-37.1-3.6-2.1-8-2.9-12.6-4l-7.4-.4c-1.5-.6-3.1-2.5-4.5-3.4-5.6-3.6-20-11.3-24.2-1.1-2.6 6.4 4 12.7 6.3 15.9 1.6 2.3 3.8 4.8 4.9 7.4.8 1.7.9 3.4 1.6 5.2 1.6 4.4 3.1 9.2 5.2 13.2 1.1 2.1 2.2 4.2 3.6 6.1.8 1.1 2.2 1.6 2.5 3.4-1.4 1.9-1.5 5-2.2 7.4-3.5 11.1-2.2 24.8 2.9 33 1.6 2.5 5.3 7.9 10.3 5.8 4.4-1.8 3.4-7.4 4.7-12.3.3-1.1.1-1.9.7-2.7v.2l4 8.1c3 4.8 8.3 9.8 12.8 13.2 2.3 1.8 4.2 4.8 7.2 5.8v-.2h-.2c-.6-.9-1.5-1.3-2.2-2-1.8-1.7-3.7-3.9-5.2-5.8-4.1-5.6-7.7-11.6-11-18-1.6-3-2.9-6.4-4.3-9.4-.5-1.2-.5-3-1.6-3.6-1.5 2.3-3.6 4.1-4.7 6.7-1.8 4.3-2 9.4-2.7 14.8-.4.1-.2 0-.5.2-3.1-.8-4.2-4-5.4-6.7-2.9-7-3.5-18.2-.9-26.3.7-2.1 3.7-8.6 2.5-10.5-.6-1.9-2.5-3-3.6-4.5-1.3-1.8-2.7-4.2-3.6-6.3-2.4-5.4-3.5-11.6-6.1-17.1-1.2-2.6-3.3-5.3-4.9-7.6-1.8-2.6-3.9-4.5-5.4-7.6-.5-1.1-1.2-2.9-.4-4 .2-.8.6-1.1 1.3-1.3 1.3-1 4.9.3 6.3.9 3.6 1.5 6.6 2.9 9.7 4.9 1.5 1 2.9 2.8 4.7 3.4h2c3.2.7 6.7.2 9.7 1.1 5.2 1.6 9.9 4.1 14.1 6.7 12.9 8.2 23.5 19.8 30.8 33.7 1.2 2.2 1.7 4.4 2.7 6.7 2.1 4.8 4.7 9.7 6.7 14.4 2.1 4.7 4.1 9.4 7 13.2 1.5 2 7.4 3.1 10.1 4.3 1.9.8 5 1.6 6.7 2.7 3.4 2 6.7 4.5 9.9 6.7 1.5 1.1 6.4 3.6 6.7 5.6z"/><path d="M276.504 24.803a15.59 15.59 0 0 0-4 .5v.2h.2c.8 1.6 2.2 2.7 3.1 4l2.2 4.7c.1-.1.2-.1.2-.2 1.4-1 2-2.5 2-4.9-.4-.6-.5-1.3-1-2-.6-1-1.9-1.5-2.7-2.3z" fill-rule="evenodd"/></g><path d="M371.609 175.06c0 5.7 4.5 9.5 9.5 9.5s9.5-3.8 9.5-9.5-4.5-9.5-9.5-9.5-9.5 3.8-9.5 9.5zm16.8 0c0 4.3-3.3 7.5-7.3 7.5-4.1 0-7.3-3.2-7.3-7.5s3.2-7.5 7.3-7.5c4 0 7.3 3.2 7.3 7.5zm-4.8 5.4h2.1l-3.1-4.8c1.7-.2 2.9-1 2.9-3 0-2.2-1.4-3.1-4.1-3.1h-4.1v10.8h1.8v-4.7h1.7l2.8 4.8zm-4.5-6.2v-3.1h2.1c1.1 0 2.4.2 2.4 1.4 0 1.5-1.2 1.6-2.5 1.6h-2z" fill-rule="evenodd" fill="#e48e00"/></svg>