<svg xmlns="http://www.w3.org/2000/svg" height="800" width="800" viewBox="0 0 32 32" xmlns:v="https://vecta.io/nano"><path d="M19.1 11.1c-.1-.2-.3-.3-.4-.3-.9.2-1.7 0-2-.5s-.1-1.3.6-2c.1-.1.1-.4 0-.5-.9-.9-2-1.6-3.3-1.9-.2-.1-.4.1-.5.3-.3.8-.9 1.4-1.5 1.4s-1.2-.6-1.5-1.5a.55.55 0 0 0-.5-.3c-1.3.3-2.4 1-3.3 1.9-.1.1-.1.4 0 .5.6.7.9 1.5.6 2s-1.1.7-2 .5c-.2 0-.4.1-.4.3a6.28 6.28 0 0 0-.3 1.9 6.28 6.28 0 0 0 .3 1.9c.1.2.3.3.4.3.9-.2 1.7 0 2 .5s.1 1.3-.6 2c-.1.1-.1.4 0 .5.9.9 2 1.6 3.3 1.9h.1c.2 0 .3-.1.4-.3.3-.9.8-1.5 1.5-1.5s1.2.6 1.5 1.5a.55.55 0 0 0 .5.3c1.3-.3 2.4-1 3.3-1.9.1-.1.1-.4 0-.5-.6-.7-.9-1.5-.6-2s1.1-.7 2-.5c.2 0 .4-.1.4-.3a6.28 6.28 0 0 0 .3-1.9c0-.6-.1-1.2-.3-1.8zm-6.2 2.3c-.1.1-.1.2-.2.3-.2.2-.4.3-.7.3-.1 0-.3 0-.4-.1s-.2-.1-.3-.2-.2-.2-.2-.3-.1-.3-.1-.4 0-.3.1-.4.1-.2.2-.3c.4-.4 1-.4 1.4 0 .1.1.2.2.2.3s.1.3.1.4 0 .3-.1.4zm16 4.2L26 11.8C25.9 6.4 21.4 2 16 2a9.85 9.85 0 0 0-6.4 2.3c.8-.2 1.6-.3 2.4-.3a8.96 8.96 0 0 1 9 9 8.96 8.96 0 0 1-9 9c-1.1 0-2.1-.2-3-.5V27c0 .5.3.9.8 1l10 2h.2c.2 0 .5-.1.6-.2.2-.2.4-.5.4-.8v-4h2c1.7 0 3-1.3 3-3v-3h2c.3 0 .7-.2.9-.5s.1-.6 0-.9z"/></svg>