<svg xmlns="http://www.w3.org/2000/svg" width="3890" height="2168" xmlns:v="https://vecta.io/nano"><path d="M2889.39 6.348l-2.04-4.07c-1.01-1.01-2.03-2.04-4.06-2.04l-4.08 1.03c-2.03 2.03-3.05 3.05-3.05 5.08l-86.52 1566.347 13.24-2.035 83.46-1523.702 99.75 163.88h-1.02c75.32 221.88 106.87 458.02 94.66 708.41l6.11 9.16 98.73 175.06 6.1 6.11c151.66 133.336 321.63 222.907 509.94 268.707l45.8 74.309 6.11 2.031 1.02-2.031L2887.35 35.768l2.04-29.52m-30.53 552.78c106.87 218.84 145.54 549.63 117.05 992.392l416.29-50.894zm948.62 961.853c42.74-5.086 70.22-14.246 82.44-27.476l-2178.16 265.656h-1.02c1.02 90.586 41.73 161.836 121.12 212.723 21.37 15.269 43.77 26.465 64.12 33.59 19.34-22.387 40.72-38.676 66.17-53.946h1.01c228-138.422 566.94-159.8 1014.78-65.136l5.09 1.011c48.86 10.18 97.71 22.399 143.52 36.645 13.22 2.035 24.42-2.035 33.58-10.18 16.29-12.215 36.65-21.375 64.13-27.476v-1.02c72.27-128.25 169.97-222.906 292.12-284.996 84.48-41.727 182.19-69.215 291.1-79.395m-1046.33 39.704l99.74-1528.787c-144.53 557.77-376.6 1078.9-695.18 1562.369l595.44-33.582M2200.32 329.008l-4.07-2.04-4.07 1.02-2.04 5.08-82.44 1323.188 12.21-1.019 82.45-1322.169-2.04-4.06m-116.03 1298.748h0l87.53-1290.608-461.08 1330.308 373.55-39.7" fill="#ccc"/><g fill="none" stroke="#ccc" stroke-linecap="round" stroke-linejoin="round"><path d="M2102.61 2057.953c-115.02 54.961-198.48 64.121-251.41 30.539-52.93-35.625-134.36-27.485-244.28 24.422m765.41-46.821c-21.37-7.125-44.78-12.211-69.21-14.25-49.87-4.066-109.93 15.27-180.16 57.004-70.23 42.746-154.71 59.035-255.48 49.871m1132.86-196.445c-484.5-99.742-833.61-76.336-1047.35 71.25m1352.7-23.406a220.58 220.58 0 0 0-69.22-14.254c-49.87-4.067-109.92 15.269-180.15 57.004-70.23 41.726-154.71 58.011-255.48 49.871" stroke-width="12"/><path d="M2655.29 341.218c-49.88-30.54-101.78-22.39-155.73 25.44-46.82-47.83-95.67-55.98-146.57-25.44m189.32-171c-50.89-30.53-100.76-18.32-151.66 36.64-49.88-54.96-100.76-67.17-151.66-36.64" stroke-width="29"/></g><path d="M56.77 1763.86h134.915c40.538 0 70.305 11.541 89.303 34.615 18.991 23.081 25.153 55.242 18.485 96.488-2.734 16.921-7.612 32.45-14.637 46.593s-16.309 27.067-27.846 38.757c-13.718 14.068-29.074 24.148-46.078 30.231s-38.749 9.123-65.23 9.123H85.588l-14.952 92.515H.472L56.77 1763.86zm61.252 55.105L94.41 1965.068h42.675c28.287 0 49.252-5.774 62.901-17.338 13.638-11.565 22.634-30.807 26.988-57.735 4.197-25.968 1.757-44.294-7.3-54.994-9.063-10.688-26.921-16.036-53.578-16.036h-48.075m260.221-147.62h69.635l-14.952 92.515h61.95c38.99 0 66.012 7.39 81.076 22.157 15.069 14.776 19.952 38.58 14.643 71.433l-26.22 162.217h-70.69l24.954-154.389c2.841-17.552 1.465-29.488-4.124-35.815-5.589-6.319-17.284-9.487-35.069-9.487h-55.579l-32.274 199.691h-69.647l56.298-348.322m288.195 92.515h134.914c40.547 0 70.305 11.541 89.303 34.615 18.995 23.081 25.154 55.242 18.49 96.488-2.734 16.921-7.616 32.45-14.633 46.593-7.033 14.144-16.322 27.067-27.851 38.757-13.722 14.068-29.077 24.148-46.081 30.231s-38.745 9.123-65.235 9.123H695.26l-14.952 92.515h-70.161l56.291-348.323zm61.26 55.105l-23.613 146.103h42.675c28.286 0 49.248-5.774 62.889-17.338s22.642-30.807 26.995-57.735c4.194-25.968 1.758-44.294-7.304-54.994-9.063-10.688-26.921-16.036-53.568-16.036h-48.075" fill="#6c78af"/><path d="M1027.749 1597.324h134.947l59.281 323.869 163.973-323.869h134.433l-68.203 422.055h-90.095l60.562-328.745-165.335 328.745h-97.63l-62.092-332.19-44.469 332.19h-93.583l68.212-422.055m654.585 353.755h68.129l39.048-241.656h84.693l-48.747 301.634c-6.618 41.008-21.443 71.383-44.451 91.124-23.009 19.731-54.929 29.604-95.751 29.604h-166.078l10.151-62.788h151.499c16.257 0 29.365-3.799 39.322-11.39 9.944-7.604 16.099-18.611 18.427-33.034l.844-5.193h-74.965c-47.951 0-80.653-9.141-98.093-27.422-17.453-18.28-22.717-48.765-15.83-91.453l30.891-191.081h83.737l-29.863 184.765c-3.774 23.373-2.642 38.697 3.434 45.975 6.064 7.278 20.594 10.916 43.602 10.916m419.97-353.756h97.52l118.187 422.055h-102.273l-23.907-100.46h-189.955l-55.187 100.46h-97.532l253.148-422.055zm31.651 83.806l-90.181 162.444h130.218l-40.037-162.444m503.348 338.249h-162.696c-49.164 0-85.266-13.979-108.319-41.941-23.04-27.957-30.505-66.932-22.431-116.914 3.316-20.491 9.229-39.309 17.751-56.446s19.771-32.796 33.759-46.971c16.629-17.042 35.309-29.25 56.03-36.624s47.045-11.06 78.959-11.06h72.662l18.113-112.099h84.387l-68.215 422.055zm-73.638-66.463l28.57-176.724h-51.222c-34.352 0-59.84 6.949-76.487 20.832-16.622 13.893-27.572 37.027-32.802 69.397-5.079 31.422-2.078 53.69 9.006 66.812s32.705 19.683 64.865 19.683h58.071m197.357-243.493h325.233c47.155 0 79.702 8.907 97.626 26.699 17.913 17.802 23.651 46.703 17.19 86.702l-31.772 196.555h-85.33l30.043-185.926c3.69-22.795 2.559-37.831-3.384-45.115-5.966-7.278-20.018-10.921-42.181-10.921h-47.51l-39.107 241.962h-86.604l39.107-241.962h-98.978l-39.107 241.962h-85.33l50.102-309.956m628.631-35.222h-88.821l12.423-76.877h88.821l-12.423 76.877zm-55.792 345.179h-88.822l50.09-309.956h88.821l-50.09 309.956m123.352-309.957h159.352c48.16 0 81.135 8.763 98.912 26.269 17.778 17.516 23.394 46.56 16.836 87.132l-31.76 196.555h-84.705l30.152-186.501c3.742-23.182 2.451-38.219-3.873-45.11-6.325-6.9-20.691-10.351-43.087-10.351h-68.117l-39.107 241.962h-84.693l50.09-309.956" fill="#f89c0e"/></svg>