<svg xmlns="http://www.w3.org/2000/svg" width="2500" height="1248" viewBox="0 0 216.156 107.929" fill-rule="evenodd" stroke-miterlimit="2.613" stroke-width=".216" xmlns:v="https://vecta.io/nano"><path fill="#2c6698" stroke="#000" d="M.396.251h214.92v107.065H.396V.251z"/><g fill="#fff" stroke="#fff"><path d="M128.268 75.275l65.16 32.4h22.033V97.02l-53.568-25.703-33.625-.145v4.103zm-40.824.145l-65.16 32.4H.252V97.164L53.82 71.459l33.624-.143v4.104zm41.04-42.625l65.232-32.4h22.031v10.656l-53.641 25.704-33.622.145v-4.105zm-41.111 0L22.14.396H.108v10.656l53.64 25.704 33.625.144v-4.105z"/><path d="M.468 36.18h214.848v35.064H.468V36.18z"/><path d="M87.516.468h40.681v106.921H87.516V.468z"/></g><path fill="#b01842" stroke="#b01842" d="M95.004.108h25.705v107.281H95.004V.108zM.252 107.389L71.82 71.604h15.696l-72 36.072s-15.264 0-15.264-.287zm128.519-71.138L200.484.323h15.623l-71.711 35.928s-15.625.289-15.625 0zM.612 8.388l58.104 27.936H73.62L.684 2.339.612 8.388zm214.56 91.872l-58.607-28.943-15.768-.072 74.375 36.287v-7.272z"/><path d="M128.053 33.156l1.152-.216-1.008 4.319-.144-4.103z" fill="#fff" stroke="#fff"/><path fill="#b01842" stroke="#b01842" d="M.468 44.459h214.848V63.18H.468V44.459z"/></svg>